<?xml version="1.0" encoding="UTF-8"?>
<svg width="800px" height="800px" viewBox="0 0 800 800" version="1.1" xmlns="http://www.w3.org/2000/svg" xmlns:xlink="http://www.w3.org/1999/xlink">
    <!-- Generator: Sketch 61 (89581) - https://sketch.com -->
    <title>编组</title>
    <desc>Created with Sketch.</desc>
    <defs>
        <linearGradient x1="50%" y1="40.9302951%" x2="50%" y2="100%" id="linearGradient-1">
            <stop stop-color="#E8E8E8" offset="0%"></stop>
            <stop stop-color="#7BC9FF" offset="100%"></stop>
        </linearGradient>
        <linearGradient x1="50%" y1="40.9302951%" x2="50%" y2="100%" id="linearGradient-2">
            <stop stop-color="#E8E8E8" offset="0%"></stop>
            <stop stop-color="#7BC9FF" offset="100%"></stop>
        </linearGradient>
        <linearGradient x1="50%" y1="53.3451169%" x2="50%" y2="100%" id="linearGradient-3">
            <stop stop-color="#EEEEEE" offset="0%"></stop>
            <stop stop-color="#69C2FF" offset="100%"></stop>
        </linearGradient>
    </defs>
    <g id="页面-1" stroke="none" stroke-width="1" fill="none" fill-rule="evenodd">
        <g id="编组">
            <rect id="矩形" fill="#006CB6" x="0" y="0" width="800" height="800" rx="38"></rect>
            <g id="园区" transform="translate(57.000000, 222.000000)" fill-rule="nonzero">
                <path d="M655.042359,297.591241 C628.590568,297.591241 605.445251,317.430657 602.138777,347.189781 C598.832304,373.642336 618.671146,400.094891 645.122938,403.40146 L645.122938,449.693431 L661.655307,449.693431 L661.655307,403.40146 C688.107098,400.094891 707.945941,373.642336 704.639467,347.189781 C704.639467,320.737226 684.800624,297.591241 655.042359,297.591241 L655.042359,297.591241 Z M542.622248,426.547446 L519.476931,426.547446 L519.476931,13.2262775 C519.476931,6.61313875 512.863983,0 506.251035,0 L149.151857,0 C145.845384,0 142.53891,0 139.232435,3.30656973 C135.925962,6.61313875 135.925962,9.91970849 135.925962,13.2262775 L135.925962,426.547446 L112.780645,426.547446 C106.167697,426.547446 99.5547493,433.160584 99.5547493,439.773723 C99.5547493,446.386862 106.167697,453 112.780645,453 L539.315773,453 C545.928721,453 552.541669,446.386861 552.541669,439.773723 C552.541669,429.854015 549.235195,426.547446 542.622248,426.547446 Z M390.52445,92.5839418 C390.52445,89.2773728 390.52445,89.2773728 393.830923,85.9708031 C393.830923,85.9708031 397.137397,82.6642334 400.443871,82.6642334 L453.347453,82.6642334 C456.653927,82.6642334 456.653927,82.6642334 459.960401,85.9708031 C459.960401,85.9708031 463.266875,89.2773721 463.266875,92.5839418 L463.266875,145.489051 C463.266875,148.79562 463.266875,148.79562 459.960401,152.10219 C459.960401,152.10219 456.653928,155.408759 453.347453,155.408759 L400.443871,155.408759 C397.137397,155.408759 393.830923,152.10219 393.830923,148.795621 L393.830923,92.5839418 L390.52445,92.5839418 Z M294.636708,92.5839418 C294.636708,89.2773728 294.636708,89.2773728 297.943181,85.9708031 C297.943181,85.9708031 301.249655,82.6642334 304.556129,82.6642334 L354.153237,82.6642334 C357.459711,82.6642334 360.766185,85.9708024 360.766185,89.2773721 L360.766185,142.182482 C360.766185,145.489051 360.766185,145.489051 357.459711,148.795621 C357.459711,148.795621 354.153237,152.10219 350.846764,152.10219 L301.249655,152.10219 C297.943182,152.10219 297.943182,152.10219 294.636708,148.795621 C294.636708,148.795621 291.330233,145.489052 291.330233,142.182482 L294.636708,92.5839418 Z M294.636708,195.087591 C294.636708,191.781022 294.636708,191.781022 297.943181,188.474453 C297.943181,188.474453 301.249655,185.167884 304.556129,185.167884 L354.153237,185.167884 C357.459711,185.167884 357.459711,185.167884 360.766185,188.474453 C360.766185,188.474453 364.072658,191.781022 364.072658,195.087591 L364.072658,247.992701 C364.072658,251.29927 364.072658,251.29927 360.766185,254.60584 C360.766185,254.60584 357.459711,257.912409 354.153237,257.912409 L301.249655,257.912409 C297.943182,257.912409 297.943182,257.912409 294.636708,254.60584 C294.636708,254.60584 291.330233,251.299271 291.330233,247.992701 L291.330233,195.087591 L294.636708,195.087591 Z M254.959021,426.547446 L162.377753,426.547446 L162.377753,413.321168 L254.959021,413.321168 L254.959021,426.547446 L254.959021,426.547446 Z M261.571969,247.992701 C261.571969,251.29927 261.571969,251.29927 258.265495,254.60584 C258.265495,254.60584 254.959022,257.912409 251.652547,257.912409 L202.055439,257.912409 C198.748966,257.912409 198.748966,257.912409 195.442491,254.60584 C195.442491,254.60584 192.136018,251.299271 192.136018,247.992701 L192.136018,195.087591 C192.136018,191.781022 192.136018,191.781022 195.442491,188.474453 C195.442491,188.474453 198.748965,185.167884 202.055439,185.167884 L254.959021,185.167884 C258.265494,185.167884 258.265494,185.167884 261.571969,188.474453 C261.571969,188.474453 264.878443,191.781022 264.878443,195.087591 L261.571969,247.992701 L261.571969,247.992701 Z M261.571969,145.489051 C261.571969,148.79562 261.571969,148.79562 258.265495,152.10219 C258.265495,152.10219 254.959022,155.408759 251.652547,155.408759 L202.055439,155.408759 C198.748966,155.408759 198.748966,155.408759 195.442491,152.10219 C195.442491,152.10219 192.136018,148.795621 192.136018,145.489051 L192.136018,92.5839418 C192.136018,89.2773728 192.136018,89.2773728 195.442491,85.9708031 C195.442491,85.9708031 198.748965,82.6642334 202.055439,82.6642334 L254.959021,82.6642334 C258.265494,82.6642334 261.571969,85.9708024 261.571969,89.2773721 L261.571969,145.489051 L261.571969,145.489051 Z M334.314394,426.547446 L334.314394,373.642336 C334.314394,370.335767 334.314394,370.335767 331.00792,367.029198 C331.00792,367.029198 327.701447,363.722629 324.394972,363.722628 C321.088498,363.722627 321.088499,363.722628 317.782025,367.029198 C317.782025,367.029198 314.475551,370.335767 314.475551,373.642336 L314.475551,426.547446 L268.184916,426.547446 L268.184916,333.963504 L321.088498,333.963504 L321.088498,347.189781 C321.088498,350.49635 321.088498,353.80292 324.394972,353.80292 L331.00792,353.80292 C334.314394,353.80292 334.314394,350.496351 334.314394,347.189781 L334.314394,333.963504 L387.217976,333.963504 L387.217976,426.547446 L334.314394,426.547446 L334.314394,426.547446 Z M390.52445,247.992701 L390.52445,195.087591 C390.52445,191.781022 390.52445,191.781022 393.830923,188.474453 C393.830923,188.474453 397.137397,185.167884 400.443871,185.167884 L453.347453,185.167884 C456.653927,185.167884 459.960401,188.474453 459.960401,191.781022 L459.960401,244.686132 C459.960401,247.992701 459.960401,247.992701 456.653927,251.299271 C456.653927,251.299271 453.347453,254.60584 450.040979,254.60584 L397.137397,254.60584 C393.830924,254.60584 393.830924,254.60584 390.52445,251.299271 L390.52445,247.992701 Z M493.02514,426.547446 L400.443871,426.547446 L400.443871,413.321168 L493.02514,413.321168 L493.02514,426.547446 Z M53.2641154,297.591241 C26.8123242,297.591241 3.66700723,317.430657 0.360532972,347.189781 C-2.94594057,373.642336 16.8929021,400.094891 43.3446933,403.40146 L43.3446933,449.693431 L59.8770632,449.693431 L59.8770632,403.40146 C86.3288544,400.094891 106.167697,373.642336 102.861223,347.189781 C102.861223,320.737226 79.7159059,297.591241 53.2641154,297.591241 L53.2641154,297.591241 Z" id="形状" fill="url(#linearGradient-1)"></path>
                <path d="M608,251.779221 C608,225.38961 584.891242,202.298701 558.481233,199 C532.071224,199 505.661215,218.792208 502.359963,245.181818 C499.058713,271.571429 518.866219,297.961039 545.276228,301.25974 L545.276228,453 L561.782484,453 L561.782484,301.25974 C588.192494,297.961039 608,278.168831 608,251.779221 L608,251.779221 Z" id="路径" fill="url(#linearGradient-2)"></path>
            </g>
            <circle id="椭圆形" fill="url(#linearGradient-3)" cx="596" cy="191" r="145"></circle>
            <g id="wifi" transform="translate(670.000000, 149.500000) rotate(-315.000000) translate(-670.000000, -149.500000) translate(616.000000, 113.000000)" fill="#009FE8" fill-rule="nonzero">
                <path d="M0.941125497,16.3195735 L10.3369472,27.0364558 C23.8329812,19.7503906 38.7037219,15.4825013 54.4471025,15.4825013 C70.1904831,15.4825013 85.0492698,19.7621804 98.5453038,27.0364558 L107.941125,16.3195735 C91.7554479,6.60481998 73.7527667,0.627416998 54.4471025,0.627416998 C35.1414383,0.627416998 17.138757,6.60481998 0.941125497,16.3195735 Z M23.2113746,39.07379 L33.4439743,50.745642 C40.1740604,48.5173793 47.1312718,46.9375529 54.4471025,46.9375529 C61.7629331,46.9375529 68.7081906,48.5173793 75.4382767,50.7338522 L85.6708764,39.0620003 C75.8805736,34.7823212 65.4567103,32.0824686 54.4471025,32.0824686 C43.4255406,32.0942583 33.0016774,34.8059007 23.2113746,39.07379 L23.2113746,39.07379 Z M45.1230046,61.993063 L54.4351485,72.627417 L63.7472924,61.993063 C60.6751217,61.4625243 57.6268589,60.861247 54.4351485,60.861247 C51.2553921,60.8730368 48.1951753,61.474314 45.1230046,61.993063 Z" id="形状"></path>
            </g>
            <g id="5G" transform="translate(498.000000, 123.000000)" fill-rule="nonzero">
                <path d="M42.7528125,123.265313 C31.3528125,123.265313 20.6328125,118.825312 12.5928125,110.785312 C4.5528125,102.745312 0.1128125,92.0253125 0.1128125,80.6253125 L24.1128125,80.6253125 C24.1128125,90.9053125 32.4728125,99.2653125 42.7528125,99.2653125 C53.0328125,99.2653125 61.3928125,90.9053125 61.3928125,80.6253125 C61.3928125,70.3453125 53.0328125,61.9853125 42.7528125,61.9853125 L10.5928125,61.9853125 L20.4328125,0.1453125 L88.8728125,0.1453125 L88.8728125,24.1453125 L40.8728125,24.1453125 L38.6728125,37.9453125 L42.7128125,37.9453125 C54.1128125,37.9453125 64.8328125,42.3853125 72.8728125,50.4253125 C80.9128125,58.4653125 85.3528125,69.1853125 85.3528125,80.5853125 C85.3528125,91.9853125 80.9128125,102.705313 72.8728125,110.745313 C64.8728125,118.825313 54.1528125,123.265313 42.7528125,123.265313 L42.7528125,123.265313 Z" id="路径" fill="#006CB6"></path>
                <path d="M133.352812,65.8253125 L133.352812,89.8253125 L171.192813,89.8253125 C169.312813,95.8253125 165.992813,101.305313 161.392812,105.905313 C153.912812,113.385313 143.912812,117.545313 133.312813,117.545313 C122.712813,117.545313 112.752812,113.425313 105.232812,105.905313 C97.7528125,98.4253125 93.5928125,88.4253125 93.5928125,77.8253125 C93.5928125,67.2253125 97.7128125,57.2653125 105.232812,49.7453125 C112.712812,42.2653125 122.712813,38.1053125 133.312813,38.1053125 L133.312813,14.1053125 C124.712812,14.1053125 116.392812,15.7853125 108.512812,19.1053125 C100.912812,22.3053125 94.1128125,26.9053125 88.2728125,32.7453125 C83.3528125,37.6653125 79.3128125,43.2653125 76.2728125,49.4253125 C76.5128125,49.6653125 76.7928125,49.9053125 77.0328125,50.1853125 C85.5128125,58.6653125 90.1528125,69.9053125 90.1528125,81.8653125 C90.1528125,92.7853125 86.2728125,103.145313 79.1128125,111.305313 C81.6728125,115.465313 84.7528125,119.345313 88.2328125,122.825313 C94.0728125,128.665313 100.872812,133.265313 108.472812,136.465313 C116.352812,139.785313 124.672812,141.465313 133.272812,141.465313 C141.872812,141.465313 150.192812,139.785313 158.072812,136.465313 C165.672812,133.265313 172.472812,128.665313 178.312812,122.825313 C184.152812,116.985313 188.752812,110.185313 191.952812,102.585313 C195.272812,94.7053125 196.952812,86.3853125 196.952812,77.7853125 L196.952812,65.7853125 L133.352812,65.7853125 L133.352812,65.8253125 Z" id="路径" fill="#E7372F"></path>
            </g>
        </g>
    </g>
</svg>