<?xml version="1.0" standalone="no"?><!DOCTYPE svg PUBLIC "-//W3C//DTD SVG 1.1//EN" "http://www.w3.org/Graphics/SVG/1.1/DTD/svg11.dtd"><svg t="1641259079481" class="icon" viewBox="0 0 1024 1024" version="1.1" xmlns="http://www.w3.org/2000/svg" p-id="11425" xmlns:xlink="http://www.w3.org/1999/xlink" width="128" height="128"><defs><style type="text/css">html, * { user-select: text !important; }
</style></defs><path d="M837.940829 2.998536H188.058154C85.608179 2.998536 2.448784 86.157931 2.448784 188.607906v649.782724c0 102.549927 83.159395 185.60937 185.60937 185.60937h649.782723c102.549927 0 185.60937-83.159395 185.609371-185.60937V188.607906C1023.550199 86.157931 940.390804 2.998536 837.940829 2.998536z" fill="#1296db" p-id="11426"></path><path d="M513.199394 801.208785c-155.224207 0-281.862372-122.04041-289.358712-275.465496h46.377355c3.598243 0 6.996584-1.899073 8.695754-5.097511 1.799122-3.198438 1.69917-6.996584-0.199902-10.09507L196.953811 377.915471c-1.799122-2.898585-4.99756-4.697706-8.495852-4.697706s-6.69673 1.799122-8.495852 4.697706L98.102078 510.550708c-1.899073 3.098487-1.999024 6.996584-0.199902 10.09507 1.799122 3.198438 5.097511 5.097511 8.695754 5.097511h47.67672c7.49634 191.806345 165.319278 344.931576 358.924744 344.931577 91.655246 0.099951 179.812201-34.882967 246.379697-97.852221l-47.67672-50.575305c-53.673792 50.875159-124.839043 79.061396-198.702977 78.961445zM927.796954 501.155295c-1.799122-3.198438-5.097511-5.097511-8.695754-5.097511h-47.077014c-8.096047-191.206637-165.719082-343.732162-358.824792-343.732162-85.25837-0.099951-167.718106 30.08531-232.586433 85.358321l45.07799 53.074085c52.274475-44.578233 118.74202-68.966325 187.508443-68.866374 153.924841 0 281.062762 120.441191 289.25876 274.266081h-46.977062c-3.598243 0-6.996584 1.899073-8.695754 5.097511-1.799122 3.198438-1.69917 6.996584 0.199903 10.095071l81.860029 132.735188c1.799122 2.898585 4.99756 4.697706 8.495851 4.697706s6.69673-1.799122 8.495852-4.697706L927.597051 511.250366c1.899073-3.098487 1.999024-6.896633 0.199903-10.095071z" fill="#FFFFFF" p-id="11427"></path></svg>